<svg width="614" height="109" viewBox="0 0 614 109" fill="none" xmlns="http://www.w3.org/2000/svg">
<path d="M18.3768 1.89172H38.9155L52.4278 32.9701L80.5334 1.89172H101.072L83.2359 78.1012H65.3996L77.5607 25.6734L55.1303 51.0766H41.3477L30.2676 25.1329L17.8363 78.1012H0L18.3768 1.89172ZM16.485 75.9393L29.9974 17.8363L42.9692 49.1849H54.3195L82.1549 17.566L68.6426 75.9393H81.8847L98.3697 4.32394H81.8847L51.8873 37.294L37.5643 4.32394H19.9982L3.5132 75.9393H16.485Z" fill="white"/>
<path d="M121.881 1.89172H139.717L128.637 49.4551L174.85 1.89172H193.226L175.39 78.1012H157.554L168.634 30.2676L122.422 78.3715H104.315L121.881 1.89172ZM121.341 75.9393L172.417 22.9709L160.256 75.9393H173.498L189.983 4.32394H175.66L124.584 57.022L136.745 4.05369H123.503L107.018 75.669H121.341V75.9393Z" fill="white"/>
<path d="M213.765 1.89172H231.331L224.305 31.8891H259.977L267.004 1.89172H284.57L266.733 78.1012H249.167L256.464 46.4824H220.791L213.495 78.3715H195.929L213.765 1.89172ZM211.873 75.9393L219.17 44.3204H259.437L252.14 75.9393H265.112L281.597 4.32394H268.625L261.599 34.3213H221.332L228.358 4.32394H215.386L198.901 75.9393H211.873Z" fill="white"/>
<path d="M311.594 66.4806L295.92 1.89172H314.297L325.107 47.5634L356.996 1.89172H377.805L302.136 108.099H281.056L311.594 66.4806ZM301.055 105.937L373.481 4.32394H358.347L324.026 53.2385L312.675 4.32394H298.893L314.297 67.2914L285.651 105.937H301.055Z" fill="white"/>
<path d="M405.91 17.0255H376.994L380.507 2.16199H455.906L452.393 17.0255H423.747L409.694 78.3715H391.857L405.91 17.0255ZM407.802 75.9393L421.855 14.5933H450.501L452.933 4.32396H382.129L379.696 14.5933H408.613L394.56 75.9393H407.802Z" fill="white"/>
<path d="M467.797 1.89172H485.633L479.688 26.7544L509.415 1.89172H534.007L489.146 38.1048L518.603 78.3715H497.794L475.634 46.2121L468.067 78.3715H450.231L467.797 1.89172ZM466.175 75.9393L474.283 40.537L498.875 75.9393H514.009L486.173 37.8345L527.791 4.32394H510.766L476.445 33.2403L483.201 4.32394H469.959L453.474 75.9393H466.175Z" fill="white"/>
<path d="M523.738 39.9965C529.143 17.2958 550.222 0 572.652 0C581.57 0 589.948 2.97271 594.813 8.10739L596.164 2.16197H614L595.894 78.3715H578.057L579.409 72.4261C573.463 76.75 564.815 80.5334 554.276 80.5334C531.575 80.5334 518.333 62.9674 523.738 39.9965ZM583.462 66.2104L580.76 75.9393H594.002L611.027 4.32394H597.785L595.623 13.2421C592.11 6.48592 582.922 2.16197 572.382 2.16197C551.033 2.16197 530.764 18.647 525.9 40.537C520.765 61.8864 532.926 78.1012 554.276 78.1012C565.356 78.1012 575.085 74.3178 583.462 66.2104ZM539.142 39.7262C542.655 24.8627 556.438 13.5123 570.49 13.5123C585.894 13.5123 594.002 24.3222 590.489 40.2667C586.975 55.941 574.004 66.7509 558.87 66.7509C544.277 66.7509 535.629 54.86 539.142 39.7262ZM588.056 39.7262C591.57 25.4032 584.273 15.9445 570.49 15.9445C557.248 15.9445 544.547 26.7544 541.304 40.537C538.061 54.0493 545.628 64.5889 558.6 64.5889C572.923 64.3187 584.813 54.5898 588.056 39.7262Z" fill="white"/>
</svg>
